# 3ds Max Wavefront OBJ Exporter v0.99 - (c)2007 guruware
# File Created: 13.10.2024 21:50:27

#
# object T_obstacleC
#

v  47.2130 0.0000 -0.0000
v  44.3657 0.0000 -16.1478
v  44.3657 40.8722 -16.1478
v  47.2130 40.8722 -0.0000
v  36.1673 0.0000 -30.3479
v  36.1673 40.8722 -30.3479
v  23.6065 0.0000 -40.8877
v  23.6065 40.8722 -40.8877
v  8.1985 0.0000 -46.4958
v  8.1985 40.8722 -46.4958
v  -8.1985 0.0000 -46.4958
v  -8.1985 40.8722 -46.4958
v  -23.6065 0.0000 -40.8877
v  -23.6065 40.8722 -40.8877
v  -36.1673 0.0000 -30.3479
v  -36.1673 40.8722 -30.3479
v  -44.3657 0.0000 -16.1478
v  -44.3657 40.8722 -16.1478
v  -47.2130 0.0000 -0.0000
v  -47.2130 40.8722 -0.0000
v  -44.3657 0.0000 16.1478
v  -44.3657 40.8722 16.1478
v  -36.1673 0.0000 30.3479
v  -36.1673 40.8722 30.3479
v  -23.6065 0.0000 40.8877
v  -23.6065 40.8722 40.8877
v  -8.1985 0.0000 46.4958
v  -8.1985 40.8722 46.4958
v  8.1984 0.0000 46.4958
v  8.1984 40.8722 46.4958
v  23.6065 0.0000 40.8877
v  23.6065 40.8722 40.8877
v  36.1673 0.0000 30.3480
v  36.1673 40.8722 30.3480
v  44.3657 0.0000 16.1478
v  44.3657 40.8722 16.1478
v  44.3657 163.4888 16.1478
v  -44.3657 163.4888 16.1478
v  -36.1673 163.4888 30.3479
v  36.1673 163.4888 30.3480
v  47.2130 163.4888 -0.0000
v  44.3657 163.4888 -16.1478
v  -44.3657 163.4888 -16.1478
v  -47.2130 163.4888 -0.0000
v  36.1673 163.4888 -30.3479
v  -36.1673 163.4888 -30.3479
v  23.6065 163.4888 -40.8877
v  -23.6065 163.4888 -40.8877
v  8.1985 163.4888 -46.4958
v  -8.1985 163.4888 -46.4958
v  -23.6065 163.4888 40.8877
v  23.6065 163.4888 40.8877
v  -8.1985 163.4888 46.4958
v  8.1984 163.4888 46.4958
v  44.3657 81.7444 -16.1478
v  47.2130 81.7444 -0.0000
v  36.1673 81.7444 -30.3479
v  23.6065 81.7444 -40.8877
v  8.1985 81.7444 -46.4958
v  -8.1985 81.7444 -46.4958
v  -23.6065 81.7444 -40.8877
v  -36.1673 81.7444 -30.3479
v  -44.3657 81.7444 -16.1478
v  -47.2130 81.7444 -0.0000
v  -44.3657 81.7444 16.1478
v  -36.1673 81.7444 30.3479
v  -23.6065 81.7444 40.8877
v  -8.1985 81.7444 46.4958
v  8.1984 81.7444 46.4958
v  23.6065 81.7444 40.8877
v  36.1673 81.7444 30.3480
v  44.3657 81.7444 16.1478
# 72 vertices

vn 0.7423 -0.6701 0.0000
vn 0.6975 -0.6701 -0.2539
vn 0.9397 0.0000 -0.3420
vn 1.0000 0.0000 0.0000
vn 0.5686 -0.6701 -0.4771
vn 0.7661 0.0000 -0.6428
vn 0.3711 -0.6701 -0.6429
vn 0.5000 0.0000 -0.8660
vn 0.1289 -0.6700 -0.7311
vn 0.1736 0.0000 -0.9848
vn -0.1289 -0.6700 -0.7311
vn -0.1736 0.0000 -0.9848
vn -0.3712 -0.6700 -0.6429
vn -0.5000 0.0000 -0.8660
vn -0.5687 -0.6700 -0.4772
vn -0.7660 0.0000 -0.6428
vn -0.6975 -0.6701 -0.2539
vn -0.9397 0.0000 -0.3420
vn -0.7423 -0.6701 0.0000
vn -1.0000 0.0000 0.0000
vn -0.6976 -0.6700 0.2539
vn -0.9397 0.0000 0.3420
vn -0.5687 -0.6700 0.4772
vn -0.7660 0.0000 0.6428
vn -0.3712 -0.6700 0.6429
vn -0.5000 0.0000 0.8660
vn -0.1289 -0.6700 0.7311
vn -0.1736 0.0000 0.9848
vn 0.1289 -0.6700 0.7311
vn 0.1736 0.0000 0.9848
vn 0.3712 -0.6700 0.6429
vn 0.5000 0.0000 0.8660
vn 0.5686 -0.6701 0.4772
vn 0.7660 0.0000 0.6428
vn 0.6975 -0.6701 0.2539
vn 0.9397 0.0000 0.3420
vn 0.6975 0.6701 0.2539
vn -0.6976 0.6700 0.2539
vn -0.5687 0.6700 0.4772
vn 0.5686 0.6701 0.4772
vn 0.7423 0.6701 0.0000
vn 0.6975 0.6701 -0.2539
vn -0.6975 0.6701 -0.2539
vn -0.7423 0.6701 0.0000
vn 0.5686 0.6701 -0.4771
vn -0.5687 0.6700 -0.4772
vn 0.3711 0.6701 -0.6429
vn -0.3712 0.6700 -0.6429
vn 0.1289 0.6700 -0.7311
vn -0.1289 0.6700 -0.7311
vn -0.3712 0.6700 0.6429
vn 0.3712 0.6700 0.6429
vn -0.1289 0.6700 0.7311
vn 0.1289 0.6700 0.7311
# 54 vertex normals

vt 0.8368 0.3134 0.0000
vt 0.8362 0.3134 0.0000
vt 0.8362 0.3524 0.0000
vt 0.8368 0.3524 0.0000
vt 0.8346 0.3134 0.0000
vt 0.8346 0.3524 0.0000
vt 0.8321 0.3134 0.0000
vt 0.8321 0.3524 0.0000
vt 0.8291 0.3134 0.0000
vt 0.8291 0.3524 0.0000
vt 0.8259 0.3134 0.0000
vt 0.8259 0.3524 0.0000
vt 0.8228 0.3134 0.0000
vt 0.8228 0.3524 0.0000
vt 0.8203 0.3134 0.0000
vt 0.8203 0.3524 0.0000
vt 0.8187 0.3134 0.0000
vt 0.8187 0.3524 0.0000
vt 0.8182 0.3134 0.0000
vt 0.8182 0.3524 0.0000
vt 0.8362 0.3610 0.0000
vt 0.8187 0.3610 0.0000
vt 0.8203 0.3610 0.0000
vt 0.8346 0.3610 0.0000
vt 0.8368 0.3610 0.0000
vt 0.8182 0.3610 0.0000
vt 0.8321 0.3610 0.0000
vt 0.8228 0.3610 0.0000
vt 0.8291 0.3610 0.0000
vt 0.8259 0.3610 0.0000
vt 0.8362 0.3914 0.0000
vt 0.8362 0.4693 0.0000
vt 0.8368 0.4693 0.0000
vt 0.8368 0.3914 0.0000
vt 0.8346 0.3914 0.0000
vt 0.8346 0.4693 0.0000
vt 0.8321 0.3914 0.0000
vt 0.8321 0.4693 0.0000
vt 0.8291 0.3914 0.0000
vt 0.8291 0.4693 0.0000
vt 0.8259 0.3914 0.0000
vt 0.8259 0.4693 0.0000
vt 0.8228 0.3914 0.0000
vt 0.8228 0.4693 0.0000
vt 0.8203 0.3914 0.0000
vt 0.8203 0.4693 0.0000
vt 0.8187 0.3914 0.0000
vt 0.8187 0.4693 0.0000
vt 0.8182 0.3914 0.0000
vt 0.8182 0.4693 0.0000
vt 0.6794 0.0982 0.0000
vt 0.6794 0.1372 0.0000
vt 0.6800 0.1372 0.0000
vt 0.6800 0.0982 0.0000
vt 0.6778 0.0982 0.0000
vt 0.6778 0.1372 0.0000
vt 0.6753 0.0982 0.0000
vt 0.6753 0.1372 0.0000
vt 0.6723 0.0982 0.0000
vt 0.6723 0.1372 0.0000
vt 0.6690 0.0982 0.0000
vt 0.6690 0.1372 0.0000
vt 0.6660 0.0982 0.0000
vt 0.6660 0.1372 0.0000
vt 0.6635 0.0982 0.0000
vt 0.6635 0.1372 0.0000
vt 0.6619 0.0982 0.0000
vt 0.6619 0.1372 0.0000
vt 0.6613 0.0982 0.0000
vt 0.6613 0.1372 0.0000
# 70 texture coords

o T_obstacleC
g T_obstacleC
s 8
f 1/1/1 2/2/2 3/3/3 4/4/4 
f 2/2/2 5/5/5 6/6/6 3/3/3 
f 5/5/5 7/7/7 8/8/8 6/6/6 
f 7/7/7 9/9/9 10/10/10 8/8/8 
f 9/9/9 11/11/11 12/12/12 10/10/10 
f 11/11/11 13/13/13 14/14/14 12/12/12 
f 13/13/13 15/15/15 16/16/16 14/14/14 
f 15/15/15 17/17/17 18/18/18 16/16/16 
f 17/17/17 19/19/19 20/20/20 18/18/18 
f 19/19/19 21/17/21 22/18/22 20/20/20 
f 21/17/21 23/15/23 24/16/24 22/18/22 
f 23/15/23 25/13/25 26/14/26 24/16/24 
f 25/13/25 27/11/27 28/12/28 26/14/26 
f 27/11/27 29/9/29 30/10/30 28/12/28 
f 29/9/29 31/7/31 32/8/32 30/10/30 
f 31/7/31 33/5/33 34/6/34 32/8/32 
f 33/5/33 35/2/35 36/3/36 34/6/34 
f 35/2/35 1/1/1 4/4/4 36/3/36 
s off
f 37/21/37 38/22/38 39/23/39 40/24/40 
f 1/1/1 19/19/19 17/17/17 2/2/2 
f 41/25/41 42/21/42 43/22/43 44/26/44 
f 1/1/1 35/2/35 21/17/21 19/19/19 
f 17/17/17 15/15/15 5/5/5 2/2/2 
f 42/21/42 45/24/45 46/23/46 43/22/43 
f 15/15/15 13/13/13 7/7/7 5/5/5 
f 45/24/45 47/27/47 48/28/48 46/23/46 
f 13/13/13 11/11/11 9/9/9 7/7/7 
f 47/27/47 49/29/49 50/30/50 48/28/48 
f 37/21/37 41/25/41 44/26/44 38/22/38 
f 35/2/35 33/5/33 23/15/23 21/17/21 
f 39/23/39 51/28/51 52/27/52 40/24/40 
f 33/5/33 31/7/31 25/13/25 23/15/23 
f 51/28/51 53/30/53 54/29/54 52/27/52 
f 31/7/31 29/9/29 27/11/27 25/13/25 
s 8
f 55/31/3 42/32/42 41/33/41 56/34/4 
f 57/35/6 45/36/45 42/32/42 55/31/3 
f 58/37/8 47/38/47 45/36/45 57/35/6 
f 59/39/10 49/40/49 47/38/47 58/37/8 
f 60/41/12 50/42/50 49/40/49 59/39/10 
f 61/43/14 48/44/48 50/42/50 60/41/12 
f 62/45/16 46/46/46 48/44/48 61/43/14 
f 63/47/18 43/48/43 46/46/46 62/45/16 
f 64/49/20 44/50/44 43/48/43 63/47/18 
f 65/47/22 38/48/38 44/50/44 64/49/20 
f 66/45/24 39/46/39 38/48/38 65/47/22 
f 67/43/26 51/44/51 39/46/39 66/45/24 
f 68/41/28 53/42/53 51/44/51 67/43/26 
f 69/39/30 54/40/54 53/42/53 68/41/28 
f 70/37/32 52/38/52 54/40/54 69/39/30 
f 71/35/34 40/36/40 52/38/52 70/37/32 
f 72/31/36 37/32/37 40/36/40 71/35/34 
f 56/34/4 41/33/41 37/32/37 72/31/36 
f 3/51/3 55/52/3 56/53/4 4/54/4 
f 6/55/6 57/56/6 55/52/3 3/51/3 
f 8/57/8 58/58/8 57/56/6 6/55/6 
f 10/59/10 59/60/10 58/58/8 8/57/8 
f 12/61/12 60/62/12 59/60/10 10/59/10 
f 14/63/14 61/64/14 60/62/12 12/61/12 
f 16/65/16 62/66/16 61/64/14 14/63/14 
f 18/67/18 63/68/18 62/66/16 16/65/16 
f 20/69/20 64/70/20 63/68/18 18/67/18 
f 22/67/22 65/68/22 64/70/20 20/69/20 
f 24/65/24 66/66/24 65/68/22 22/67/22 
f 26/63/26 67/64/26 66/66/24 24/65/24 
f 28/61/28 68/62/28 67/64/26 26/63/26 
f 30/59/30 69/60/30 68/62/28 28/61/28 
f 32/57/32 70/58/32 69/60/30 30/59/30 
f 34/55/34 71/56/34 70/58/32 32/57/32 
f 36/51/36 72/52/36 71/56/34 34/55/34 
f 4/54/4 56/53/4 72/52/36 36/51/36 
# 70 polygons

