# 3ds Max Wavefront OBJ Exporter v0.99 - (c)2007 guruware
# File Created: 13.10.2024 21:51:14

#
# object T_pillar
#

v  40.0000 7.0170 99.0613
v  40.0000 7.0170 59.0613
v  -0.0000 7.0170 59.0613
v  -0.0000 7.0170 99.0613
v  40.0000 3.7690 99.0613
v  40.0000 3.7690 59.0613
v  -0.0000 3.7690 59.0613
v  28.4859 7.0170 92.7886
v  28.4859 7.0170 65.3339
v  28.4859 144.3119 75.4689
v  28.4859 144.3119 102.9236
v  36.8863 7.0170 61.5763
v  3.1137 7.0170 61.5763
v  3.1137 144.3119 71.7113
v  36.8863 144.3119 71.7113
v  36.8863 144.3119 75.4689
v  36.8863 7.0170 65.3339
v  36.8863 1105.3760 229.8447
v  36.8863 830.7863 196.9482
v  36.8863 830.7863 193.1906
v  36.8863 1105.3760 226.0871
v  28.4859 830.7863 193.1906
v  28.4859 1105.3760 226.0871
v  28.4859 493.0383 119.6014
v  28.4859 830.7862 165.7359
v  28.4859 493.0384 147.0560
v  36.8863 493.0384 150.8136
v  3.1137 830.7863 196.9482
v  3.1137 493.0384 150.8136
v  36.8863 493.0383 115.8437
v  36.8863 830.7862 161.9783
v  36.8863 830.7862 165.7359
v  36.8863 493.0383 119.6014
v  36.8863 281.6068 123.0640
v  36.8863 281.6068 119.3064
v  36.8863 493.0384 147.0560
v  28.4859 281.6068 119.3064
v  28.4859 281.6068 91.8517
v  3.1137 281.6068 123.0640
v  36.8863 281.6068 88.0941
v  36.8863 281.6068 91.8517
v  36.8863 144.3119 106.6812
v  36.8863 144.3119 102.9236
v  28.4859 1105.3760 198.6324
v  36.8863 1105.3760 194.8748
v  36.8863 1105.3760 198.6324
v  3.1137 144.3119 106.6812
v  36.8863 7.0170 96.5462
v  36.8863 7.0170 92.7886
v  -0.0000 3.7690 99.0613
v  11.5141 7.0170 65.3339
v  3.1137 1105.3760 194.8748
v  11.5141 1105.3760 198.6324
v  11.5141 1105.3760 226.0871
v  3.1137 281.6068 88.0941
v  3.1137 493.0383 115.8437
v  3.1137 830.7862 161.9783
v  11.5141 7.0170 92.7886
v  11.5141 144.3119 102.9236
v  11.5141 144.3119 75.4689
v  3.1137 7.0170 65.3339
v  3.1137 144.3119 75.4689
v  3.1137 1105.3760 229.8447
v  3.1137 1105.3760 226.0871
v  3.1137 830.7863 193.1906
v  11.5141 830.7863 193.1906
v  11.5141 493.0383 119.6014
v  11.5141 493.0384 147.0560
v  11.5141 830.7862 165.7359
v  3.1137 493.0383 119.6014
v  3.1137 830.7862 165.7359
v  3.1137 493.0384 147.0560
v  3.1137 281.6068 119.3064
v  11.5141 281.6068 119.3064
v  11.5141 281.6068 91.8517
v  3.1137 281.6068 91.8517
v  3.1137 144.3119 102.9236
v  3.1137 1105.3760 198.6324
v  3.1137 7.0170 92.7886
v  3.1137 7.0170 96.5462
v  40.0000 7.0170 -99.0613
v  -0.0000 7.0170 -99.0613
v  -0.0000 7.0170 -59.0613
v  40.0000 7.0170 -59.0613
v  40.0000 3.7690 -99.0613
v  40.0000 3.7690 -59.0613
v  -0.0000 3.7690 -59.0613
v  28.4859 7.0170 -92.7886
v  28.4859 144.3119 -102.9236
v  28.4859 144.3119 -75.4689
v  28.4859 7.0170 -65.3339
v  36.8863 7.0170 -61.5763
v  36.8863 144.3119 -71.7113
v  3.1137 144.3119 -71.7113
v  3.1137 7.0170 -61.5763
v  36.8863 7.0170 -65.3339
v  36.8863 144.3119 -75.4689
v  36.8863 1105.3760 -229.8447
v  36.8863 1105.3760 -226.0871
v  36.8863 830.7863 -193.1906
v  36.8863 830.7863 -196.9482
v  28.4859 1105.3760 -226.0871
v  28.4859 830.7863 -193.1906
v  28.4859 493.0383 -119.6014
v  28.4859 493.0384 -147.0560
v  28.4859 830.7862 -165.7359
v  36.8863 493.0384 -150.8136
v  3.1137 493.0384 -150.8136
v  3.1137 830.7863 -196.9482
v  36.8863 493.0383 -115.8437
v  36.8863 493.0383 -119.6014
v  36.8863 830.7862 -165.7359
v  36.8863 830.7862 -161.9783
v  36.8863 493.0384 -147.0560
v  36.8863 281.6068 -119.3064
v  36.8863 281.6068 -123.0640
v  28.4859 281.6068 -119.3064
v  28.4859 281.6068 -91.8517
v  3.1137 281.6068 -123.0640
v  36.8863 281.6068 -88.0941
v  36.8863 281.6068 -91.8517
v  36.8863 144.3119 -102.9236
v  36.8863 144.3119 -106.6812
v  28.4859 1105.3760 -198.6324
v  36.8863 1105.3760 -198.6324
v  36.8863 1105.3760 -194.8748
v  3.1137 144.3119 -106.6812
v  36.8863 7.0170 -92.7886
v  36.8863 7.0170 -96.5462
v  -0.0000 3.7690 -99.0613
v  11.5141 7.0170 -65.3339
v  11.5141 1105.3760 -198.6324
v  3.1137 1105.3760 -194.8748
v  11.5141 1105.3760 -226.0871
v  3.1137 493.0383 -115.8437
v  3.1137 281.6068 -88.0941
v  3.1137 830.7862 -161.9783
v  11.5141 7.0170 -92.7886
v  11.5141 144.3119 -75.4689
v  11.5141 144.3119 -102.9236
v  3.1137 144.3119 -75.4689
v  3.1137 7.0170 -65.3339
v  3.1137 1105.3760 -229.8447
v  3.1137 830.7863 -193.1906
v  3.1137 1105.3760 -226.0871
v  11.5141 830.7863 -193.1906
v  11.5141 493.0383 -119.6014
v  11.5141 830.7862 -165.7359
v  11.5141 493.0384 -147.0560
v  3.1137 830.7862 -165.7359
v  3.1137 493.0383 -119.6014
v  3.1137 281.6068 -119.3064
v  3.1137 493.0384 -147.0560
v  11.5141 281.6068 -119.3064
v  11.5141 281.6068 -91.8517
v  3.1137 281.6068 -91.8517
v  3.1137 144.3119 -102.9236
v  3.1137 1105.3760 -198.6324
v  3.1137 7.0170 -96.5462
v  3.1137 7.0170 -92.7886
# 160 vertices

vn 0.5774 0.5774 0.5774
vn 0.5774 0.5774 -0.5774
vn -0.5774 0.5774 -0.5774
vn -0.5774 0.5774 0.5774
vn 0.5774 -0.5774 0.5774
vn 0.5774 -0.5774 -0.5774
vn -0.5774 -0.5774 -0.5774
vn 0.3207 -0.8965 -0.3055
vn 0.2829 -0.9123 0.2960
vn 0.7021 -0.0684 0.7088
vn 0.7123 0.0674 -0.6987
vn 0.5736 -0.5575 -0.6002
vn -0.5736 -0.5575 -0.6002
vn -0.7021 0.0684 -0.7088
vn 0.7021 0.0684 -0.7088
vn 0.7123 -0.0674 0.6987
vn 0.5813 -0.5962 0.5538
vn 0.5713 0.5447 0.6139
vn 0.7053 -0.0901 0.7032
vn 0.7090 0.0897 -0.6995
vn 0.5839 0.6072 -0.5388
vn 0.7053 0.0901 -0.7032
vn 0.2717 0.9170 -0.2919
vn 0.7066 -0.0939 0.7014
vn 0.7089 -0.0897 0.6996
vn 0.7077 0.0938 -0.7002
vn 0.7077 -0.0938 0.7002
vn -0.7052 -0.0901 0.7032
vn -0.7077 -0.0938 0.7002
vn 0.7066 0.0939 -0.7014
vn 0.7085 -0.0877 0.7003
vn 0.7058 0.0881 -0.7029
vn 0.7084 0.0877 -0.7003
vn 0.7058 -0.0881 0.7029
vn -0.7085 -0.0877 0.7003
vn 0.3329 0.8915 0.3072
vn -0.7123 -0.0674 0.6987
vn -0.5774 -0.5774 0.5774
vn -0.2829 -0.9123 0.2960
vn -0.5839 0.6072 -0.5388
vn -0.3329 0.8915 0.3072
vn -0.2717 0.9170 -0.2919
vn -0.7058 0.0881 -0.7029
vn -0.7066 0.0939 -0.7014
vn -0.7089 0.0897 -0.6996
vn -0.3207 -0.8965 -0.3055
vn -0.7122 0.0674 -0.6988
vn -0.7020 -0.0684 0.7089
vn -0.5813 -0.5962 0.5538
vn -0.5713 0.5447 0.6139
vn -0.7053 0.0901 -0.7032
vn -0.7065 -0.0939 0.7015
vn -0.7077 0.0938 -0.7003
vn -0.7090 -0.0897 0.6995
vn -0.7085 0.0877 -0.7003
vn -0.7058 -0.0881 0.7029
vn 0.3207 -0.8965 0.3055
vn 0.7122 0.0674 0.6987
vn 0.7021 -0.0684 -0.7088
vn 0.2829 -0.9123 -0.2960
vn 0.5736 -0.5575 0.6002
vn 0.7021 0.0684 0.7088
vn -0.7020 0.0684 0.7089
vn -0.5736 -0.5575 0.6002
vn 0.5813 -0.5962 -0.5538
vn 0.7123 -0.0674 -0.6987
vn 0.5713 0.5447 -0.6139
vn 0.5839 0.6072 0.5388
vn 0.7090 0.0897 0.6995
vn 0.7053 -0.0901 -0.7032
vn 0.2717 0.9170 0.2919
vn 0.7053 0.0901 0.7032
vn 0.7065 -0.0939 -0.7014
vn 0.7077 0.0938 0.7003
vn 0.7090 -0.0897 -0.6995
vn 0.7077 -0.0938 -0.7002
vn -0.7077 -0.0938 -0.7003
vn -0.7053 -0.0901 -0.7032
vn 0.7066 0.0939 0.7014
vn 0.7077 -0.0938 -0.7003
vn 0.7089 0.0897 0.6996
vn 0.7058 0.0881 0.7029
vn 0.7084 -0.0877 -0.7003
vn 0.7084 0.0877 0.7003
vn 0.7059 -0.0881 -0.7029
vn -0.7085 -0.0877 -0.7003
vn 0.7085 -0.0877 -0.7002
vn 0.3329 0.8915 -0.3072
vn -0.7122 -0.0674 -0.6988
vn -0.2829 -0.9123 -0.2960
vn -0.3329 0.8915 -0.3072
vn -0.5839 0.6072 0.5388
vn -0.2717 0.9170 0.2919
vn -0.7065 0.0939 0.7014
vn -0.7059 0.0881 0.7029
vn -0.7090 0.0897 0.6995
vn -0.3207 -0.8965 0.3055
vn -0.7021 -0.0684 -0.7088
vn -0.7122 0.0674 0.6987
vn -0.7123 -0.0674 -0.6987
vn -0.5813 -0.5962 -0.5538
vn -0.5713 0.5447 -0.6139
vn -0.7052 0.0901 0.7032
vn -0.7065 -0.0939 -0.7014
vn -0.7089 -0.0897 -0.6996
vn -0.7077 0.0938 0.7003
vn -0.7058 0.0881 0.7029
vn -0.7085 0.0877 0.7003
vn -0.7058 -0.0881 -0.7029
vn -0.7084 -0.0877 -0.7003
vn -0.7021 0.0684 0.7088
# 111 vertex normals

vt 0.5117 0.0594 0.0000
vt 0.5071 0.0594 0.0000
vt 0.5117 0.0236 0.0000
vt 0.5071 0.0236 0.0000
vt 0.5071 0.0239 0.0000
vt 0.5117 0.0239 0.0000
vt 0.5110 0.0039 0.0000
vt 0.5078 0.0039 0.0000
vt 0.5090 0.0166 0.0000
vt 0.5121 0.0166 0.0000
vt 0.5074 0.0239 0.0000
vt 0.5086 0.0367 0.0000
vt 0.5090 0.0367 0.0000
vt 0.5078 0.0239 0.0000
vt 0.5266 0.1256 0.0000
vt 0.5228 0.1002 0.0000
vt 0.5224 0.1002 0.0000
vt 0.5262 0.1256 0.0000
vt 0.5386 0.1452 0.0000
vt 0.5397 0.1579 0.0000
vt 0.5569 0.2468 0.0000
vt 0.5532 0.2214 0.0000
vt 0.5140 0.0489 0.0000
vt 0.5193 0.0801 0.0000
vt 0.5224 0.0801 0.0000
vt 0.5172 0.0489 0.0000
vt 0.5176 0.0689 0.0000
vt 0.5136 0.0689 0.0000
vt 0.5189 0.1002 0.0000
vt 0.5193 0.1002 0.0000
vt 0.5140 0.0689 0.0000
vt 0.5144 0.0494 0.0000
vt 0.5140 0.0494 0.0000
vt 0.5172 0.0689 0.0000
vt 0.5448 0.1902 0.0000
vt 0.5500 0.2214 0.0000
vt 0.5479 0.1902 0.0000
vt 0.5447 0.1706 0.0000
vt 0.5109 0.0293 0.0000
vt 0.5140 0.0293 0.0000
vt 0.5104 0.0494 0.0000
vt 0.5109 0.0494 0.0000
vt 0.5416 0.1706 0.0000
vt 0.5125 0.0367 0.0000
vt 0.5121 0.0367 0.0000
vt 0.5429 0.1579 0.0000
vt 0.5230 0.1056 0.0000
vt 0.5262 0.1056 0.0000
vt 0.5226 0.1256 0.0000
vt 0.5230 0.1256 0.0000
vt 0.5538 0.2468 0.0000
vt 0.5114 0.0239 0.0000
vt 0.5110 0.0239 0.0000
vt 0.5417 0.1452 0.0000
# 54 texture coords

o T_pillar
g T_pillar
s 4
f 1/1/1 2/2/2 3/2/3 4/1/4 
s 8
f 5/3/5 6/4/6 2/5/2 1/6/1 
s 16
f 6/4/6 7/4/7 3/5/3 2/5/2 
s 8
f 8/7/8 9/8/9 10/9/10 11/10/11 
s 16
f 12/11/12 13/11/13 14/12/14 15/12/15 
s off
f 12/11/12 15/12/15 16/13/16 17/14/17 
f 18/15/18 19/16/19 20/17/20 21/18/21 
f 17/19/17 16/20/16 10/20/10 9/19/9 
f 21/21/21 20/22/20 22/22/22 23/21/23 
s 8
f 24/23/24 25/24/25 22/25/22 26/26/26 
s 64
f 27/27/27 19/16/19 28/16/28 29/27/29 
s off
f 30/28/30 31/29/20 32/30/19 33/31/27 
f 27/27/27 34/32/31 35/33/32 36/34/30 
f 33/35/27 32/36/19 25/36/25 24/35/24 
f 36/37/30 35/38/32 37/38/33 26/37/26 
s 8
f 38/39/34 24/23/24 26/26/26 37/40/33 
s 64
f 34/32/31 27/27/27 29/27/29 39/32/35 
s off
f 40/41/32 30/28/30 33/31/27 41/42/31 
f 41/43/31 33/35/27 24/35/24 38/43/34 
f 34/32/31 42/44/16 43/45/15 35/33/32 
f 35/38/32 43/46/15 11/46/11 37/38/33 
f 19/16/19 27/27/27 36/34/30 20/17/20 
f 20/22/20 36/37/30 26/37/26 22/22/22 
s 8
f 25/24/25 44/47/36 23/48/23 22/25/22 
s off
f 31/29/20 45/49/21 46/50/18 32/30/19 
f 32/36/19 46/51/18 44/51/36 25/36/25 
s 8
f 10/9/10 38/39/34 37/40/33 11/10/11 
s 64
f 42/44/16 34/32/31 39/32/35 47/44/37 
s off
f 15/12/15 40/41/32 41/42/31 16/13/16 
f 16/20/16 41/43/31 38/43/34 10/20/10 
f 42/44/16 48/52/17 49/53/12 43/45/15 
f 43/46/15 49/54/12 8/54/8 11/46/11 
s 64
f 5/3/5 1/6/1 4/6/4 50/3/38 
s 1
f 12/11/12 9/14/9 51/14/39 13/11/13 
s 128
f 44/50/36 45/49/21 52/49/40 53/50/41 
f 23/48/23 44/47/36 53/47/41 54/48/42 
s 16
f 30/28/30 40/41/32 55/41/43 56/28/44 
f 45/49/21 31/29/20 57/29/45 52/49/40 
s 2
f 50/3/38 7/4/7 6/4/6 5/3/5 
s 8
f 50/3/38 4/6/4 3/5/3 7/4/7 
f 58/7/46 59/10/47 60/9/48 51/8/39 
s off
f 13/11/13 61/14/49 62/13/37 14/12/14 
f 63/15/50 64/18/40 65/17/45 28/16/28 
f 61/19/49 51/19/39 60/20/48 62/20/37 
f 64/21/40 54/21/42 66/22/51 65/22/45 
s 8
f 67/23/52 68/26/53 66/25/51 69/24/54 
s off
f 56/28/44 70/31/29 71/30/28 57/29/45 
f 29/27/29 72/34/44 73/33/43 39/32/35 
f 70/35/29 67/35/52 69/36/54 71/36/28 
f 72/37/44 68/37/53 74/38/55 73/38/43 
s 8
f 75/39/56 74/40/55 68/26/53 67/23/52 
s off
f 55/41/43 76/42/35 70/31/29 56/28/44 
f 76/43/35 75/43/56 67/35/52 70/35/29 
f 39/32/35 73/33/43 77/45/14 47/44/37 
f 73/38/43 74/38/55 59/46/47 77/46/14 
f 28/16/28 65/17/45 72/34/44 29/27/29 
f 65/22/45 66/22/51 68/37/53 72/37/44 
s 8
f 69/24/54 66/25/51 54/48/42 53/47/41 
s 64
f 28/16/28 19/16/19 18/15/18 63/15/50 
s off
f 57/29/45 71/30/28 78/50/50 52/49/40 
f 71/36/28 69/36/54 53/51/41 78/51/50 
s 8
f 60/9/48 59/10/47 74/40/55 75/39/56 
s off
f 14/12/14 62/13/37 76/42/35 55/41/43 
f 62/20/37 60/20/48 75/43/56 76/43/35 
f 47/44/37 77/45/14 79/53/13 80/52/49 
f 77/46/14 59/46/47 58/54/46 79/54/13 
s 64
f 48/52/17 42/44/16 47/44/37 80/52/49 
s 1
f 8/53/8 48/52/17 80/52/49 58/53/46 
f 9/8/9 8/7/8 58/7/46 51/8/39 
s 128
f 18/15/18 23/18/23 54/18/42 63/15/50 
s 16
f 31/29/20 30/28/30 56/28/44 57/29/45 
f 40/41/32 15/12/15 14/12/14 55/41/43 
s 128
f 54/18/42 64/18/40 63/15/50 
f 52/49/40 78/50/50 53/50/41 
f 44/50/36 46/50/18 45/49/21 
f 18/15/18 21/18/21 23/18/23 
s 1
f 51/14/39 61/14/49 13/11/13 
f 12/11/12 17/14/17 9/14/9 
f 8/53/8 49/53/12 48/52/17 
f 80/52/49 79/53/13 58/53/46 
s 4
f 81/1/2 82/1/3 83/2/4 84/2/1 
s 8
f 85/3/6 81/6/2 84/5/1 86/4/5 
s 16
f 86/4/5 84/5/1 83/5/4 87/4/38 
s 8
f 88/7/57 89/10/58 90/9/59 91/8/60 
s 16
f 92/11/61 93/12/62 94/12/63 95/11/64 
s off
f 92/11/61 96/14/65 97/13/66 93/12/62 
f 98/15/67 99/18/68 100/17/69 101/16/70 
f 96/19/65 91/19/60 90/20/59 97/20/66 
f 99/21/68 102/21/71 103/22/72 100/22/69 
s 8
f 104/23/73 105/26/74 103/25/72 106/24/75 
s 64
f 107/27/76 108/27/77 109/16/78 101/16/70 
s off
f 110/28/79 111/31/80 112/30/70 113/29/81 
f 107/27/76 114/34/79 115/33/82 116/32/83 
f 111/35/80 104/35/73 106/36/75 112/36/70 
f 114/37/79 105/37/74 117/38/84 115/38/82 
s 8
f 118/39/85 117/40/84 105/26/74 104/23/73 
s 64
f 116/32/83 119/32/86 108/27/77 107/27/76 
s off
f 120/41/82 121/42/87 111/31/80 110/28/79 
f 121/43/87 118/43/85 104/35/73 111/35/80 
f 116/32/83 115/33/82 122/45/62 123/44/66 
f 115/38/82 117/38/84 89/46/58 122/46/62 
f 101/16/70 100/17/69 114/34/79 107/27/76 
f 100/22/69 103/22/72 105/37/74 114/37/79 
s 8
f 106/24/75 103/25/72 102/48/71 124/47/88 
s off
f 113/29/81 112/30/70 125/50/67 126/49/68 
f 112/36/70 106/36/75 124/51/88 125/51/67 
s 8
f 90/9/59 89/10/58 117/40/84 118/39/85 
s 64
f 123/44/66 127/44/89 119/32/86 116/32/83 
s off
f 93/12/62 97/13/66 121/42/87 120/41/82 
f 97/20/66 90/20/59 118/43/85 121/43/87 
f 123/44/66 122/45/62 128/53/61 129/52/65 
f 122/46/62 89/46/58 88/54/57 128/54/61 
s 64
f 85/3/6 130/3/7 82/6/3 81/6/2 
s 1
f 92/11/61 95/11/64 131/14/90 91/14/60 
s 128
f 124/50/88 132/50/91 133/49/92 126/49/68 
f 102/48/71 134/48/93 132/47/91 124/47/88 
s 16
f 110/28/79 135/28/94 136/41/95 120/41/82 
f 126/49/68 133/49/92 137/29/96 113/29/81 
s 2
f 130/3/7 85/3/6 86/4/5 87/4/38 
s 8
f 130/3/7 87/4/38 83/5/4 82/6/3 
f 138/7/97 131/8/90 139/9/98 140/10/99 
s off
f 95/11/64 94/12/63 141/13/100 142/14/101 
f 143/15/102 109/16/78 144/17/96 145/18/92 
f 142/19/101 141/20/100 139/20/98 131/19/90 
f 145/21/92 144/22/96 146/22/103 134/21/93 
s 8
f 147/23/104 148/24/105 146/25/103 149/26/106 
s off
f 135/28/94 137/29/96 150/30/78 151/31/77 
f 108/27/77 119/32/86 152/33/107 153/34/94 
f 151/35/77 150/36/78 148/36/105 147/35/104 
f 153/37/94 152/38/107 154/38/108 149/37/106 
s 8
f 155/39/109 147/23/104 149/26/106 154/40/108 
s off
f 136/41/95 135/28/94 151/31/77 156/42/110 
f 156/43/110 151/35/77 147/35/104 155/43/109 
f 119/32/86 127/44/89 157/45/111 152/33/107 
f 152/38/107 157/46/111 140/46/99 154/38/108 
f 109/16/78 108/27/77 153/34/94 144/17/96 
f 144/22/96 153/37/94 149/37/106 146/22/103 
s 8
f 148/24/105 132/47/91 134/48/93 146/25/103 
s 64
f 109/16/78 143/15/102 98/15/67 101/16/70 
s off
f 137/29/96 133/49/92 158/50/102 150/30/78 
f 150/36/78 158/51/102 132/51/91 148/36/105 
s 8
f 139/9/98 155/39/109 154/40/108 140/10/99 
s off
f 94/12/63 136/41/95 156/42/110 141/13/100 
f 141/20/100 156/43/110 155/43/109 139/20/98 
f 127/44/89 159/52/101 160/53/64 157/45/111 
f 157/46/111 160/54/64 138/54/97 140/46/99 
s 64
f 129/52/65 159/52/101 127/44/89 123/44/66 
s 1
f 88/53/57 138/53/97 159/52/101 129/52/65 
f 91/8/60 131/8/90 138/7/97 88/7/57 
s 128
f 98/15/67 143/15/102 134/18/93 102/18/71 
s 16
f 113/29/81 137/29/96 135/28/94 110/28/79 
f 120/41/82 136/41/95 94/12/63 93/12/62 
s 128
f 134/18/93 143/15/102 145/18/92 
f 133/49/92 132/50/91 158/50/102 
f 124/50/88 126/49/68 125/50/67 
f 98/15/67 102/18/71 99/18/68 
s 1
f 131/14/90 95/11/64 142/14/101 
f 92/11/61 91/14/60 96/14/65 
f 88/53/57 129/52/65 128/53/61 
f 159/52/101 138/53/97 160/53/64 
# 144 polygons - 16 triangles

